<svg width="74" height="74" viewBox="0 0 74 74" fill="none" xmlns="http://www.w3.org/2000/svg">
<path fill-rule="evenodd" clip-rule="evenodd" d="M36.698 73.396C56.9657 73.396 73.396 56.9657 73.396 36.698C73.396 16.4302 56.9657 0 36.698 0C16.4302 0 0 16.4302 0 36.698C0 56.9657 16.4302 73.396 36.698 73.396ZM34.2147 64.359V68.3099C19.4279 67.0249 7.57033 55.5092 5.75857 40.8794L9.62476 40.8512C10.7293 40.8432 11.6182 39.9413 11.6102 38.8367L11.6031 37.8701C11.5951 36.7656 10.6932 35.8767 9.58862 35.8847L5.53601 35.9142C6.0661 19.8999 18.5668 6.91611 34.377 5.62411C34.2725 5.86662 34.2147 6.13393 34.2147 6.41475V10.6925C34.2147 11.7971 35.1101 12.6925 36.2147 12.6925H37.1813C38.2859 12.6925 39.1813 11.7971 39.1813 10.6925V6.41475C39.1813 6.11784 39.1166 5.83604 39.0005 5.58268C54.5191 6.56948 66.9795 18.8092 68.3114 34.2316L64.3589 34.2603C63.2543 34.2683 62.3654 35.1703 62.3735 36.2748L62.3805 37.2414C62.3885 38.346 63.2905 39.2349 64.395 39.2268L68.3519 39.198C67.2618 54.8034 54.7889 67.2711 39.1813 68.353V64.359C39.1813 63.2544 38.2859 62.359 37.1813 62.359H36.2147C35.1101 62.359 34.2147 63.2544 34.2147 64.359Z" fill="#DFE5E8"/>
<path d="M45.5681 25.5561C46.3204 25.2106 47.1428 25.8765 46.9612 26.6842L44.0841 39.4804C43.9214 40.2039 43.0554 40.5048 42.4791 40.0381L33.4376 32.7162C32.8613 32.2495 32.9757 31.3398 33.6496 31.0303L45.5681 25.5561Z" fill="#363D47"/>
<path d="M29.479 48.2578C28.7272 48.6044 27.9039 47.9398 28.0842 47.1318L30.9415 34.3312C31.103 33.6075 31.9686 33.3052 32.5456 33.771L41.5984 41.0789C42.1754 41.5448 42.0625 42.4546 41.3891 42.7651L29.479 48.2578Z" fill="#363D47"/>
</svg>
