<svg width="44" height="45" viewBox="0 0 44 45" fill="none" xmlns="http://www.w3.org/2000/svg">
<rect width="44" height="45" rx="7" fill="#363D47"/>
<path d="M23.4915 23.9088V33.9997H18.6506V16.5451H23.2643V19.6247H23.4688C23.8552 18.6095 24.5029 17.8065 25.412 17.2156C26.3211 16.6171 27.4234 16.3179 28.7188 16.3179C29.9309 16.3179 30.9878 16.583 31.8893 17.1133C32.7908 17.6436 33.4915 18.4012 33.9915 19.3861C34.4915 20.3633 34.7415 21.53 34.7415 22.8861V33.9997H29.9006V23.7497C29.9082 22.6815 29.6355 21.8482 29.0825 21.2497C28.5294 20.6436 27.7681 20.3406 26.7984 20.3406C26.1468 20.3406 25.5711 20.4808 25.0711 20.7611C24.5787 21.0414 24.1923 21.4504 23.912 21.9883C23.6393 22.5186 23.4991 23.1588 23.4915 23.9088Z" fill="white"/>
<path d="M9.93182 33.9997V16.5452H14.7727V33.9997H9.93182ZM12.3636 14.2952C11.6439 14.2952 11.0265 14.0566 10.5114 13.5793C10.0038 13.0944 9.75 12.5149 9.75 11.8406C9.75 11.174 10.0038 10.602 10.5114 10.1247C11.0265 9.63989 11.6439 9.39746 12.3636 9.39746C13.0833 9.39746 13.697 9.63989 14.2045 10.1247C14.7197 10.602 14.9773 11.174 14.9773 11.8406C14.9773 12.5149 14.7197 13.0944 14.2045 13.5793C13.697 14.0566 13.0833 14.2952 12.3636 14.2952Z" fill="white"/>
</svg>
