<svg width="25" height="37" viewBox="0 0 25 37" fill="none" xmlns="http://www.w3.org/2000/svg">
<path fill-rule="evenodd" clip-rule="evenodd" d="M21.7658 19.53C23.4337 17.4693 24.4335 14.8404 24.4335 11.9769C24.4335 5.36222 19.0987 0 12.5178 0C5.93691 0 0.602051 5.36222 0.602051 11.9769C0.602051 14.5597 1.41548 16.9516 2.79889 18.9079C2.81264 19.0099 2.84282 19.1125 2.89135 19.2128L11.1 36.1722C11.4565 36.9086 12.4981 36.929 12.8827 36.207L21.7404 19.5808C21.7494 19.5639 21.7579 19.547 21.7658 19.53ZM18.0172 11.5163C18.0172 14.8236 15.3498 17.5047 12.0594 17.5047C8.76892 17.5047 6.10149 14.8236 6.10149 11.5163C6.10149 8.20894 8.76892 5.52783 12.0594 5.52783C15.3498 5.52783 18.0172 8.20894 18.0172 11.5163Z" fill="#363D47"/>
</svg>
