<svg width="84" height="96" viewBox="0 0 84 96" fill="none" xmlns="http://www.w3.org/2000/svg">
<path fill-rule="evenodd" clip-rule="evenodd" d="M64.6883 67.7265C64.8872 66.2727 64.99 64.7883 64.99 63.2799C64.99 45.3334 50.4415 30.7849 32.495 30.7849C14.5485 30.7849 0 45.3334 0 63.2799C0 64.7883 0.102778 66.2727 0.301713 67.7265H64.6883ZM32.5662 95.7748H32.4238C32.4475 95.7749 32.4713 95.7749 32.495 95.7749C32.5187 95.7749 32.5425 95.7749 32.5662 95.7748Z" fill="#363D47"/>
<circle cx="32.8371" cy="18.4708" r="18.4708" fill="#363D47"/>
<path fill-rule="evenodd" clip-rule="evenodd" d="M83.1849 67.8776C83.3389 66.7521 83.4184 65.603 83.4184 64.4352C83.4184 50.5432 72.1567 39.2815 58.2647 39.2815C44.3727 39.2815 33.111 50.5432 33.111 64.4352C33.111 65.603 33.1905 66.7521 33.3446 67.8776H83.1849Z" fill="#DFE5E8"/>
<circle cx="58.5295" cy="29.7498" r="14.2979" fill="#DFE5E8"/>
</svg>
