<svg width="59" height="61" viewBox="0 0 59 61" fill="none" xmlns="http://www.w3.org/2000/svg">
<path d="M18.7621 15.2023C18.3171 15.9111 18.4739 16.9026 19.1124 17.4168C19.7509 17.931 20.6293 17.7732 21.0743 17.0643L18.7621 15.2023ZM46.914 19.134C47.6817 19.2945 48.4079 18.7268 48.5362 17.866L50.626 3.83742C50.7542 2.97656 50.2359 2.14854 49.4682 1.98799C48.7006 1.82744 47.9743 2.39515 47.8461 3.25602L45.9885 15.7258L34.8689 13.4002C34.1013 13.2397 33.375 13.8074 33.2468 14.6683C33.1185 15.5291 33.6369 16.3571 34.4045 16.5177L46.914 19.134ZM19.9182 16.1333C21.0743 17.0643 21.0742 17.0645 21.0742 17.0646C21.0742 17.0645 21.0742 17.0646 21.0742 17.0645C21.0743 17.0643 21.0746 17.0639 21.0749 17.0633C21.0757 17.0622 21.0769 17.0602 21.0787 17.0573C21.0823 17.0517 21.0879 17.0428 21.0956 17.0307C21.1109 17.0065 21.1343 16.9697 21.1655 16.9212C21.2278 16.824 21.321 16.6799 21.442 16.4958C21.684 16.1274 22.037 15.5997 22.4768 14.9684C23.3583 13.7032 24.5797 12.0345 25.9493 10.4029C27.3271 8.76141 28.814 7.20679 30.2246 6.13213C31.7023 5.00633 32.8006 4.63653 33.4945 4.77125L33.9228 1.64651C32.087 1.29007 30.1967 2.29024 28.6145 3.49568C26.9651 4.75226 25.3206 6.49014 23.8832 8.20258C22.4376 9.9248 21.16 11.6714 20.2462 12.983C19.7884 13.6402 19.4198 14.1912 19.1646 14.5795C19.037 14.7738 18.9376 14.9275 18.8695 15.0336C18.8355 15.0866 18.8093 15.1278 18.7913 15.1562C18.7823 15.1704 18.7753 15.1814 18.7704 15.1891C18.768 15.193 18.7661 15.196 18.7647 15.1982C18.764 15.1993 18.7634 15.2002 18.763 15.2009C18.7628 15.2012 18.7626 15.2016 18.7625 15.2017C18.7623 15.202 18.7621 15.2023 19.9182 16.1333ZM33.4945 4.77125C34.369 4.94104 35.5947 5.72175 37.0567 7.08218C38.4722 8.39931 39.9378 10.0951 41.2768 11.7983C42.6111 13.4955 43.7942 15.1675 44.6452 16.4177C45.0701 17.0419 45.4106 17.5587 45.6441 17.9181C45.7608 18.0977 45.8506 18.2379 45.9108 18.3323C45.9408 18.3795 45.9635 18.4153 45.9783 18.4388C45.9858 18.4506 45.9913 18.4593 45.9947 18.4648C45.9965 18.4676 45.9977 18.4696 45.9985 18.4708C45.9988 18.4714 45.9991 18.4717 45.9992 18.4719C45.9993 18.472 45.9993 18.472 45.9993 18.4721C45.9993 18.472 45.9992 18.4719 47.1462 17.5753C48.2932 16.6786 48.2931 16.6784 48.2929 16.6782C48.2928 16.678 48.2926 16.6777 48.2925 16.6774C48.2921 16.6767 48.2915 16.6759 48.2909 16.6749C48.2896 16.6728 48.2878 16.67 48.2855 16.6663C48.2809 16.659 48.2743 16.6485 48.2657 16.6349C48.2485 16.6077 48.2235 16.5682 48.191 16.5171C48.1259 16.415 48.0308 16.2667 47.9086 16.0784C47.6641 15.702 47.3105 15.1655 46.8708 14.5196C45.9928 13.2296 44.7652 11.4942 43.3724 9.72253C41.9844 7.95701 40.4068 6.12255 38.8284 4.65389C37.2966 3.22853 35.5779 1.96787 33.9228 1.64651L33.4945 4.77125Z" fill="#363D47"/>
<path d="M57.0628 26.2568C56.9105 25.4444 56.1292 24.9285 55.3178 25.1046C54.5063 25.2806 53.972 26.0819 54.1244 26.8943L57.0628 26.2568ZM35.3205 46.9614C34.6447 47.4577 34.4813 48.4005 34.9555 49.0674L42.6838 59.9348C43.1581 60.6017 44.0904 60.7401 44.7662 60.2438C45.442 59.7476 45.6054 58.8047 45.1311 58.1378L38.2615 48.4779L48.0507 41.29C48.7265 40.7938 48.8899 39.8509 48.4157 39.184C47.9414 38.5171 47.0091 38.3788 46.3333 38.875L35.3205 46.9614ZM55.5936 26.5755C54.1244 26.8943 54.1243 26.8941 54.1243 26.894C54.1243 26.8941 54.1243 26.8941 54.1243 26.8942C54.1244 26.8945 54.1245 26.895 54.1246 26.8957C54.1249 26.8972 54.1254 26.8997 54.126 26.9032C54.1273 26.9101 54.1293 26.921 54.132 26.9357C54.1374 26.9652 54.1455 27.0099 54.156 27.069C54.1771 27.1873 54.2078 27.3631 54.2457 27.5892C54.3215 28.0415 54.4257 28.6941 54.5385 29.4892C54.7644 31.0824 55.0225 33.2339 55.1556 35.4848C55.2894 37.7478 55.293 40.0517 55.0326 41.97C54.758 43.9925 54.2407 45.1724 53.6912 45.6484L55.6045 47.907C57.0912 46.6192 57.7101 44.3921 57.9946 42.2959C58.2933 40.0956 58.2788 37.5694 58.1401 35.2228C58.0006 32.8641 57.7315 30.6265 57.4985 28.9829C57.3817 28.1596 57.2735 27.482 57.1942 27.0086C57.1546 26.7719 57.1221 26.586 57.0994 26.4583C57.088 26.3944 57.079 26.3451 57.0728 26.3112C57.0697 26.2943 57.0673 26.2812 57.0656 26.2721C57.0648 26.2675 57.0641 26.264 57.0637 26.2614C57.0634 26.2601 57.0632 26.2591 57.0631 26.2584C57.063 26.258 57.0629 26.2576 57.0629 26.2574C57.0628 26.2571 57.0628 26.2568 55.5936 26.5755ZM53.6912 45.6484C53.0186 46.231 51.7218 46.7089 49.8586 46.9956C48.0579 47.2726 45.9732 47.337 43.9616 47.2914C41.9584 47.246 40.0727 47.0928 38.6848 46.9502C37.992 46.8791 37.4261 46.8109 37.0351 46.7607C36.8397 46.7356 36.6881 46.7151 36.5864 46.701C36.5356 46.6939 36.4972 46.6885 36.4721 46.6848C36.4596 46.683 36.4503 46.6817 36.4445 46.6808C36.4416 46.6804 36.4395 46.6801 36.4383 46.6799C36.4377 46.6798 36.4373 46.6798 36.4371 46.6798C36.437 46.6797 36.4371 46.6798 36.437 46.6797C36.4371 46.6798 36.4373 46.6798 36.1792 48.1689C35.9211 49.6581 35.9214 49.6581 35.9217 49.6582C35.9219 49.6582 35.9222 49.6583 35.9226 49.6583C35.9233 49.6584 35.9242 49.6585 35.9254 49.6587C35.9276 49.659 35.9308 49.6595 35.9348 49.6601C35.9428 49.6613 35.9543 49.6629 35.9691 49.6651C35.9987 49.6693 36.0417 49.6754 36.0973 49.6832C36.2085 49.6986 36.3702 49.7205 36.5763 49.747C36.9886 49.7998 37.5792 49.871 38.2997 49.945C39.7383 50.0927 41.7063 50.2531 43.8112 50.3008C45.9078 50.3484 48.1857 50.2854 50.2296 49.9709C52.2111 49.6661 54.2409 49.0882 55.6045 47.907L53.6912 45.6484Z" fill="#363D47"/>
<path d="M29.2391 52.1333C30.0652 52.0805 30.6869 51.3674 30.6276 50.5404C30.5683 49.7135 29.8506 49.0858 29.0245 49.1386L29.2391 52.1333ZM14.4505 24.9545C14.0291 24.2379 13.1095 23.9941 12.3965 24.41L0.777697 31.1883C0.0647096 31.6043 -0.171667 32.5225 0.249733 33.2391C0.671135 33.9558 1.59074 34.1996 2.30373 33.7837L12.6316 27.7585L18.7357 38.1399C19.1571 38.8566 20.0767 39.1004 20.7897 38.6844C21.5027 38.2685 21.739 37.3503 21.3176 36.6336L14.4505 24.9545ZM29.1318 50.6359C29.0245 49.1386 29.0247 49.1386 29.0249 49.1386C29.0248 49.1386 29.0249 49.1386 29.0248 49.1386C29.0247 49.1386 29.0244 49.1386 29.0238 49.1386C29.0227 49.1387 29.0206 49.1388 29.0177 49.139C29.0118 49.1394 29.0024 49.1399 28.9895 49.1407C28.9638 49.1422 28.9242 49.1444 28.8717 49.1472C28.7667 49.1526 28.61 49.1602 28.4084 49.1681C28.0048 49.184 27.4222 49.2013 26.7141 49.2067C25.2942 49.2173 23.3873 49.1796 21.4161 48.9892C19.4311 48.7974 17.4523 48.4572 15.857 47.8923C14.206 47.3076 13.2792 46.5935 12.9282 45.8728L10.234 47.17C11.1194 48.9879 13.0046 50.0574 14.8762 50.7202C16.8035 51.4027 19.0578 51.7738 21.1514 51.976C23.2588 52.1796 25.2759 52.2185 26.7604 52.2074C27.5045 52.2018 28.1192 52.1836 28.5499 52.1666C28.7653 52.1581 28.935 52.15 29.0521 52.1438C29.1106 52.1408 29.156 52.1382 29.1875 52.1364C29.2032 52.1355 29.2155 52.1347 29.2241 52.1342C29.2284 52.1339 29.2319 52.1337 29.2344 52.1336C29.2356 52.1335 29.2366 52.1334 29.2374 52.1334C29.2378 52.1334 29.2383 52.1333 29.2385 52.1333C29.2388 52.1333 29.2391 52.1333 29.1318 50.6359ZM12.9282 45.8728C12.4757 44.9439 12.2524 43.3158 12.2839 41.1612C12.3146 39.0688 12.5785 36.7013 12.9252 34.4506C13.2708 32.2065 13.6933 30.1131 14.03 28.5787C14.1982 27.8124 14.3445 27.1877 14.4484 26.756C14.5003 26.5401 14.5416 26.3726 14.5698 26.2599C14.5838 26.2036 14.5946 26.1609 14.6017 26.1328C14.6053 26.1187 14.6079 26.1083 14.6097 26.1016C14.6105 26.0982 14.6111 26.0958 14.6115 26.0943C14.6117 26.0936 14.6118 26.0931 14.6119 26.0928C14.6119 26.0927 14.6119 26.0927 14.612 26.0926C14.6119 26.0926 14.6119 26.0927 13.1595 25.7077C11.7071 25.3226 11.7071 25.3229 11.707 25.3231C11.707 25.3233 11.7069 25.3237 11.7068 25.324C11.7066 25.3247 11.7064 25.3256 11.7061 25.3268C11.7055 25.3291 11.7046 25.3324 11.7035 25.3367C11.7014 25.3451 11.6983 25.3573 11.6942 25.3732C11.6862 25.4049 11.6745 25.4512 11.6595 25.5114C11.6295 25.6317 11.5862 25.8072 11.5322 26.0316C11.4242 26.4803 11.2733 27.1247 11.1003 27.913C10.7547 29.4878 10.3189 31.646 9.96085 33.9706C9.6038 36.2887 9.31854 38.8073 9.28506 41.0935C9.25248 43.3175 9.45006 45.5604 10.234 47.17L12.9282 45.8728Z" fill="#363D47"/>
</svg>
