<?xml version="1.0" encoding="UTF-8" standalone="no"?>
<!DOCTYPE svg PUBLIC "-//W3C//DTD SVG 1.1//EN" "http://www.w3.org/Graphics/SVG/1.1/DTD/svg11.dtd">
<svg width="100%" height="100%" viewBox="0 0 4961 3508" version="1.1" xmlns="http://www.w3.org/2000/svg" xmlns:xlink="http://www.w3.org/1999/xlink" xml:space="preserve" xmlns:serif="http://www.serif.com/" style="fill-rule:evenodd;clip-rule:evenodd;stroke-linejoin:round;stroke-miterlimit:2;">
    <g transform="matrix(1,0,0,1,-1984.25,63.905)">
        <g transform="matrix(1.1386,0,0,1.1386,-1056.59,-409.533)">
            <path d="M3976,831.828C3976.32,830.917 3967.09,848.516 3948.31,869.096C3924.07,895.66 3891.66,910.584 3879.21,912.345C3856.1,915.615 3812.63,919.764 3780.66,900.216C3779.84,899.713 3736.19,875.782 3733.98,822.416C3733.3,805.819 3739.78,764.754 3772.36,746.691C3816.4,722.282 3856.95,743.426 3868.75,775.736C3874.24,790.749 3872.99,820.341 3872.99,820.341L3786.26,819.313C3783.95,831.002 3788.7,843.996 3796.22,852.741C3803.34,861.016 3816.72,872.776 3853.28,871.731C3870.85,871.228 3899.35,858.808 3915.51,843.163C3934.9,824.404 3949.74,787.971 3951.82,773.74C3954.86,752.894 3958.29,719.929 3937.3,687.564C3931.33,678.363 3923.06,667.123 3910.33,656.444C3895.41,643.925 3870.51,633.955 3874.02,635.697C3877.24,637.293 3910.62,638.764 3941.45,661.63C3954.82,671.55 3966.54,684.302 3977.76,703.123C3983.9,713.44 3993.09,743.163 3993.32,773.74L4041.04,852.985L4107.42,734.243L4068,733.528L4159.29,666.575L4189.37,734.243L4159.29,734.243L4049.59,931.959L4032.76,931.959L3976,831.828ZM3818.03,775.563C3809.7,775.563 3802.58,778.406 3796.68,784.091C3790.78,789.777 3787.58,793.336 3786.89,801.669L3847.05,801.669C3846.53,792.468 3843.79,788.692 3838.8,783.44C3833.81,778.189 3826.89,775.563 3818.03,775.563Z" style="fill:rgb(75,91,107);"/>
        </g>
        <g transform="matrix(1,0,0,1,100.394,-476.771)">
            <path d="M3027.16,953.15C3027.16,953.15 3024.4,967.08 3029.43,992.126C3032.61,1007.9 3037.88,1028.91 3042.33,1039.37C3054.12,1067.15 3072.26,1086.89 3094.49,1104.42C3121.51,1125.74 3153.79,1143.95 3181.16,1149.67C3252.27,1164.53 3299.02,1152.99 3292.28,1157.48C3285.53,1161.97 3198.27,1212.06 3112.11,1166.29C3023.04,1118.98 3017.55,1066.61 3011.81,1027.56C3006.96,994.536 3027.16,953.15 3027.16,953.15Z" style="fill:rgb(149,173,173);"/>
        </g>
        <g transform="matrix(1,0,0,1,100.394,-476.771)">
            <path d="M2261.81,1057.09C2261.81,1057.09 2310.56,962.671 2456.69,944.882C2607.24,926.555 2714.51,1025.36 2834.65,1015.75C2938.98,1007.4 2939.18,989.288 2917.32,1009.84C2899.75,1026.37 2851.66,1086.85 2704.72,1054.78C2640.69,1040.81 2643.47,1038 2610.24,1025.96C2578.46,1014.46 2535.58,989.805 2474.41,986.22C2370.07,980.107 2261.81,1057.09 2261.81,1057.09Z" style="fill:rgb(75,91,107);"/>
        </g>
        <g transform="matrix(1,0,0,1,100.394,-476.771)">
            <path d="M2409.45,904.543C2409.45,904.543 2442.1,843.902 2533.47,856.299C2624.83,868.696 2660.27,890.865 2704.72,897.638C2749.18,904.41 2764.08,902.591 2811.02,897.638C2873.42,891.054 2923.88,858.534 2970.47,838.583C2999.3,826.239 3074.42,791.145 3129.92,791.339C3155.67,791.429 3185.45,793.011 3212.6,801.591C3252.47,814.192 3287.76,855.364 3297.74,885.827C3302.59,900.597 3306.92,925.037 3305.09,944.882C3303.65,960.437 3301.45,945.765 3295.28,933.071C3284.24,910.409 3261.63,870.005 3210.42,850.394C3194.64,844.347 3172.82,839.922 3151.99,844C3042.52,865.436 2960.35,939.77 2850,956.693C2847.55,957.069 2796.64,963.028 2740.16,956.693C2693.54,951.464 2641.76,931.941 2606.69,918.898C2590.7,912.95 2556.04,901.5 2542.91,898.819C2499.69,889.989 2502.3,891.422 2483.86,890.551C2465.83,889.7 2407.19,902.283 2409.45,904.543Z" style="fill:rgb(150,173,173);"/>
        </g>
    </g>
</svg>
