<svg width="51" height="71" viewBox="0 0 51 71" fill="none" xmlns="http://www.w3.org/2000/svg">
<path fill-rule="evenodd" clip-rule="evenodd" d="M20.8759 54.1529C22.2231 56.8184 22.2585 60.0854 20.6828 62.883C18.1728 67.3395 12.5254 68.9173 8.06904 66.4074C3.61263 63.8974 2.03473 58.25 4.54471 53.7936C6.12041 50.996 8.93259 49.3328 11.9103 49.1032L30.1049 16.7992C28.7577 14.1337 28.7223 10.8667 30.298 8.06909C32.808 3.61269 38.4554 2.03479 42.9118 4.54476C47.3682 7.05473 48.9461 12.7021 46.4361 17.1585C44.8604 19.9561 42.0482 21.6193 39.0705 21.8489L20.8759 54.1529ZM9.42319 52.4708L15.5894 52.9285L19.2853 58.0254L15.9332 63.977L9.52975 63.6872L6.07107 58.4224L9.42319 52.4708ZM41.3427 7.20393L35.1765 6.74622L31.8244 12.6978L35.2831 17.9626L41.6865 18.2525L45.0387 12.3009L41.3427 7.20393Z" fill="#363D47"/>
</svg>
